<svg id="Layer_1" data-name="Layer 1" xmlns="http://www.w3.org/2000/svg" xmlns:xlink="http://www.w3.org/1999/xlink" viewBox="0 0 235.99 134.04"><defs><style>.cls-1{fill:none;}.cls-2{clip-path:url(#clip-path);}.cls-3{fill:#da9c9c;}</style><clipPath id="clip-path" transform="translate(-21.76 -73.05)"><rect class="cls-1" width="280" height="280"/></clipPath></defs><title>medium_icon</title><g class="cls-2"><g id="medium_icon" data-name="medium icon"><g id="medium"><g id="Group_36" data-name="Group 36"><path id="Path_273" data-name="Path 273" class="cls-3" d="M88.32,73.05c36.78,0,66.56,30,66.56,67s-29.78,67-66.56,67-66.56-30-66.56-67S51.54,73.05,88.32,73.05Zm106.29,4c18.34,0,33.28,28.21,33.28,63.06h0c0,34.84-14.94,63.05-33.28,63.05s-33.28-28.21-33.28-63.05S176.26,77,194.61,77Zm51.44,6.55c6.45,0,11.7,25.26,11.7,56.51s-5.25,56.51-11.7,56.51-11.71-25.35-11.71-56.51S239.59,83.56,246.05,83.56Z" transform="translate(-21.76 -73.05)"/></g></g></g></g></svg>