<svg xmlns="http://www.w3.org/2000/svg" xmlns:xlink="http://www.w3.org/1999/xlink" width="1920" height="1937" viewBox="0 0 1920 1937"><defs><clipPath id="b"><rect width="1920" height="1937"/></clipPath></defs><g id="a" clip-path="url(#b)"><rect width="1920" height="1937" fill="#fff"/><g transform="translate(15 -2)"><path d="M74.5,3A71.152,71.152,0,0,0,34.526,15.209,71.718,71.718,0,0,0,8.618,46.67a71.4,71.4,0,0,0,6.592,67.8A71.718,71.718,0,0,0,46.67,140.382a71.4,71.4,0,0,0,67.8-6.592,71.718,71.718,0,0,0,25.908-31.461,71.4,71.4,0,0,0-6.592-67.8A71.718,71.718,0,0,0,102.33,8.618,71.049,71.049,0,0,0,74.5,3m0-3A74.5,74.5,0,1,1,0,74.5,74.5,74.5,0,0,1,74.5,0Z" transform="translate(1233 502)" fill="#d6d6d6" opacity="0.2"/><path d="M217.5,3a216.1,216.1,0,0,0-43.232,4.358A213.307,213.307,0,0,0,97.573,39.631a215.135,215.135,0,0,0-77.718,94.376,213.4,213.4,0,0,0-12.5,40.26,216.62,216.62,0,0,0,0,86.465,213.307,213.307,0,0,0,32.273,76.694,215.135,215.135,0,0,0,94.376,77.718,213.4,213.4,0,0,0,40.26,12.5,216.62,216.62,0,0,0,86.465,0,213.307,213.307,0,0,0,76.694-32.273,215.135,215.135,0,0,0,77.718-94.376,213.4,213.4,0,0,0,12.5-40.26,216.62,216.62,0,0,0,0-86.465,213.307,213.307,0,0,0-32.273-76.694,215.135,215.135,0,0,0-94.376-77.718,213.4,213.4,0,0,0-40.26-12.5A216.1,216.1,0,0,0,217.5,3m0-3C337.622,0,435,97.378,435,217.5S337.622,435,217.5,435,0,337.622,0,217.5,97.378,0,217.5,0Z" transform="translate(1090 359)" fill="#d6d6d6" opacity="0.2"/><path d="M449.5,3a453.686,453.686,0,0,0-45.656,2.305,447.613,447.613,0,0,0-44.333,6.766c-14.384,2.943-28.78,6.645-42.788,11-13.851,4.308-27.652,9.359-41.02,15.014A447.812,447.812,0,0,0,38.087,275.7c-5.654,13.368-10.706,27.169-15.014,41.02-4.357,14.008-8.059,28.4-11,42.788a447.613,447.613,0,0,0-6.766,44.333,453.226,453.226,0,0,0,0,91.311,447.619,447.619,0,0,0,6.766,44.333c2.943,14.384,6.645,28.78,11,42.788,4.308,13.851,9.359,27.653,15.014,41.02A447.812,447.812,0,0,0,275.7,860.913c13.368,5.654,27.169,10.706,41.02,15.014,14.008,4.357,28.4,8.059,42.788,11a447.613,447.613,0,0,0,44.333,6.766,453.226,453.226,0,0,0,91.311,0,447.619,447.619,0,0,0,44.333-6.766c14.384-2.943,28.78-6.645,42.788-11,13.851-4.308,27.653-9.359,41.02-15.014A447.813,447.813,0,0,0,860.913,623.3c5.654-13.368,10.706-27.169,15.014-41.02,4.357-14.008,8.059-28.4,11-42.788a447.619,447.619,0,0,0,6.766-44.333,453.226,453.226,0,0,0,0-91.311,447.613,447.613,0,0,0-6.766-44.333c-2.943-14.384-6.645-28.78-11-42.788-4.308-13.851-9.359-27.652-15.014-41.02A447.813,447.813,0,0,0,623.3,38.087c-13.368-5.654-27.169-10.706-41.02-15.014-14.008-4.357-28.4-8.059-42.788-11a447.619,447.619,0,0,0-44.333-6.766A453.686,453.686,0,0,0,449.5,3m0-3C697.752,0,899,201.248,899,449.5S697.752,899,449.5,899,0,697.752,0,449.5,201.248,0,449.5,0Z" transform="translate(858 127)" fill="#d6d6d6" opacity="0.2"/><path d="M724.5,3a733.123,733.123,0,0,0-73.773,3.725,723.353,723.353,0,0,0-71.638,10.933c-23.244,4.756-46.507,10.738-69.143,17.778C487.564,42.4,465.262,50.561,443.661,59.7c-21.4,9.052-42.621,19.274-63.068,30.382-20.3,11.028-40.316,23.188-59.488,36.14-19.079,12.89-37.767,26.864-55.544,41.535-17.734,14.635-34.973,30.3-51.238,46.568s-31.933,33.5-46.568,51.238c-14.671,17.777-28.646,36.465-41.535,55.544-12.952,19.172-25.111,39.186-36.14,59.488C78.972,401.039,68.75,422.258,59.7,443.661c-9.137,21.6-17.3,43.9-24.261,66.286-7.041,22.636-13.022,45.9-17.778,69.143A723.353,723.353,0,0,0,6.725,650.727a732.369,732.369,0,0,0,0,147.545,723.353,723.353,0,0,0,10.933,71.638c4.756,23.244,10.738,46.507,17.778,69.143,6.962,22.383,15.124,44.685,24.261,66.286,9.052,21.4,19.274,42.621,30.382,63.068,11.028,20.3,23.188,40.316,36.14,59.488,12.89,19.079,26.864,37.767,41.535,55.544,14.635,17.734,30.3,34.973,46.568,51.238s33.5,31.933,51.238,46.568c17.777,14.671,36.465,28.646,55.544,41.535,19.172,12.952,39.186,25.111,59.488,36.14,20.447,11.107,41.666,21.329,63.068,30.382,21.6,9.137,43.9,17.3,66.286,24.261,22.636,7.041,45.9,13.022,69.143,17.778a723.353,723.353,0,0,0,71.638,10.933,732.369,732.369,0,0,0,147.545,0,723.353,723.353,0,0,0,71.638-10.933c23.244-4.756,46.507-10.738,69.143-17.778,22.383-6.962,44.685-15.124,66.286-24.261,21.4-9.052,42.621-19.274,63.068-30.382,20.3-11.028,40.316-23.188,59.488-36.14,19.079-12.89,37.767-26.864,55.544-41.535,17.734-14.635,34.973-30.3,51.238-46.568s31.933-33.5,46.568-51.238c14.671-17.777,28.646-36.465,41.535-55.544,12.952-19.172,25.111-39.186,36.14-59.488,11.107-20.447,21.329-41.666,30.382-63.068,9.137-21.6,17.3-43.9,24.261-66.286,7.041-22.636,13.022-45.9,17.778-69.143a723.353,723.353,0,0,0,10.933-71.638,732.369,732.369,0,0,0,0-147.545,723.353,723.353,0,0,0-10.933-71.638c-4.756-23.244-10.738-46.507-17.778-69.143-6.962-22.383-15.124-44.685-24.261-66.286-9.052-21.4-19.274-42.621-30.382-63.068-11.028-20.3-23.188-40.316-36.14-59.488-12.89-19.079-26.864-37.767-41.535-55.544-14.635-17.734-30.3-34.973-46.568-51.238s-33.5-31.933-51.238-46.568c-17.777-14.671-36.465-28.646-55.544-41.535-19.172-12.952-39.186-25.111-59.488-36.14-20.447-11.107-41.666-21.329-63.068-30.382-21.6-9.137-43.9-17.3-66.286-24.261-22.636-7.041-45.9-13.022-69.143-17.778A723.353,723.353,0,0,0,798.273,6.725,733.123,733.123,0,0,0,724.5,3m0-3C1124.63,0,1449,324.37,1449,724.5S1124.63,1449,724.5,1449,0,1124.63,0,724.5,324.37,0,724.5,0Z" transform="translate(583 -148)" fill="#d6d6d6" opacity="0.2"/><path d="M944.5,3c-16.113,0-32.415.412-48.452,1.225-15.915.807-32,2.03-47.815,3.636a943.849,943.849,0,0,0-93.482,14.267c-30.331,6.207-60.688,14.012-90.226,23.2-29.208,9.085-58.31,19.736-86.5,31.659-27.928,11.813-55.618,25.152-82.3,39.646-26.492,14.391-52.61,30.258-77.627,47.159-24.9,16.82-49.283,35.056-72.481,54.2-23.141,19.1-45.636,39.543-66.861,60.767s-41.67,43.719-60.767,66.861c-19.145,23.2-37.38,47.584-54.2,72.481-16.9,25.017-32.768,51.135-47.159,77.627-14.494,26.681-27.833,54.371-39.646,82.3-11.923,28.189-22.574,57.291-31.659,86.5-9.187,29.538-16.993,59.895-23.2,90.226A943.849,943.849,0,0,0,7.861,848.234c-1.606,15.813-2.829,31.9-3.636,47.815C3.412,912.085,3,928.387,3,944.5s.412,32.415,1.225,48.452c.807,15.915,2.03,32,3.636,47.814a943.846,943.846,0,0,0,14.267,93.482c6.207,30.331,14.012,60.688,23.2,90.226,9.085,29.208,19.736,58.31,31.659,86.5,11.813,27.928,25.152,55.618,39.646,82.3,14.391,26.492,30.258,52.609,47.159,77.627,16.82,24.9,35.056,49.283,54.2,72.481,19.1,23.141,39.543,45.636,60.767,66.861s43.719,41.67,66.861,60.767c23.2,19.145,47.584,37.38,72.481,54.2,25.017,16.9,51.135,32.768,77.627,47.16,26.681,14.494,54.371,27.833,82.3,39.646,28.189,11.923,57.291,22.574,86.5,31.659,29.538,9.187,59.895,16.993,90.226,23.2a943.849,943.849,0,0,0,93.482,14.267c15.813,1.606,31.9,2.829,47.815,3.636,16.037.813,32.339,1.225,48.452,1.225s32.415-.412,48.452-1.225c15.915-.807,32-2.03,47.814-3.636a943.846,943.846,0,0,0,93.482-14.267c30.331-6.207,60.688-14.012,90.226-23.2,29.208-9.085,58.31-19.736,86.5-31.659,27.928-11.813,55.618-25.152,82.3-39.646,26.492-14.391,52.609-30.258,77.627-47.16,24.9-16.82,49.283-35.056,72.481-54.2,23.141-19.1,45.636-39.543,66.861-60.767s41.67-43.719,60.767-66.861c19.145-23.2,37.38-47.584,54.2-72.481,16.9-25.017,32.768-51.135,47.16-77.627,14.494-26.681,27.833-54.371,39.646-82.3,11.923-28.189,22.574-57.291,31.659-86.5,9.187-29.538,16.993-59.895,23.2-90.226a943.846,943.846,0,0,0,14.267-93.482c1.606-15.812,2.829-31.9,3.636-47.814.813-16.037,1.225-32.339,1.225-48.452s-.412-32.415-1.225-48.452c-.807-15.915-2.03-32-3.636-47.815a943.849,943.849,0,0,0-14.267-93.482c-6.207-30.331-14.012-60.688-23.2-90.226-9.085-29.208-19.736-58.31-31.659-86.5-11.813-27.928-25.152-55.618-39.646-82.3-14.391-26.492-30.258-52.61-47.16-77.627-16.82-24.9-35.056-49.283-54.2-72.481-19.1-23.141-39.543-45.636-60.767-66.861s-43.719-41.67-66.861-60.767c-23.2-19.145-47.584-37.38-72.481-54.2-25.017-16.9-51.135-32.768-77.627-47.159-26.681-14.494-54.371-27.833-82.3-39.646-28.189-11.923-57.291-22.574-86.5-31.659-29.538-9.187-59.895-16.993-90.226-23.2a943.846,943.846,0,0,0-93.482-14.267c-15.812-1.606-31.9-2.829-47.814-3.636C976.915,3.412,960.613,3,944.5,3m0-3C1466.133,0,1889,422.867,1889,944.5S1466.133,1889,944.5,1889,0,1466.133,0,944.5,422.867,0,944.5,0Z" transform="translate(363 -368)" fill="#d6d6d6" opacity="0.2"/><path d="M1322.5,3c-22.582,0-45.428.578-67.9,1.717-22.3,1.131-44.85,2.845-67.011,5.1-22,2.234-44.217,5.057-66.036,8.391-21.668,3.311-43.529,7.215-64.978,11.6-21.309,4.36-42.787,9.317-63.838,14.734-20.922,5.383-41.989,11.365-62.614,17.781C909.611,68.7,888.984,75.68,868.812,83.066c-20.068,7.348-40.228,15.3-59.92,23.626-19.6,8.29-39.265,17.18-58.448,26.424-19.1,9.206-38.246,19.01-56.894,29.139-18.581,10.094-37.172,20.783-55.257,31.772-18.03,10.955-36.042,22.5-53.536,34.321-17.452,11.79-34.857,24.167-51.733,36.788-16.845,12.6-33.616,25.777-49.847,39.172-16.211,13.379-32.32,27.332-47.878,41.473s-30.967,28.832-45.826,43.691S359.914,419.75,345.782,435.3s-28.095,31.667-41.473,47.878c-13.395,16.231-26.574,33-39.172,49.847-12.621,16.876-25,34.282-36.788,51.733-11.819,17.494-23.366,35.506-34.321,53.536-10.989,18.085-21.678,36.676-31.772,55.257-10.13,18.648-19.934,37.789-29.139,56.894-9.243,19.183-18.134,38.848-26.424,58.448-8.329,19.691-16.278,39.851-23.626,59.92-7.386,20.172-14.365,40.8-20.744,61.308-6.415,20.625-12.4,41.692-17.781,62.614-5.416,21.051-10.373,42.529-14.734,63.838-4.389,21.448-8.293,43.31-11.6,64.978-3.333,21.819-6.157,44.036-8.391,66.036-2.251,22.161-3.965,44.707-5.1,67.011C3.578,1277.072,3,1299.918,3,1322.5s.578,45.428,1.717,67.9c1.131,22.3,2.845,44.85,5.1,67.011,2.234,22,5.057,44.217,8.391,66.036,3.311,21.668,7.215,43.529,11.6,64.978,4.36,21.309,9.317,42.787,14.734,63.837,5.383,20.923,11.365,41.989,17.781,62.614,6.379,20.509,13.358,41.136,20.744,61.308,7.348,20.068,15.3,40.228,23.626,59.92,8.29,19.6,17.18,39.265,26.424,58.448,9.206,19.1,19.01,38.246,29.139,56.894,10.094,18.581,20.783,37.172,31.772,55.256,10.955,18.03,22.5,36.042,34.321,53.536,11.79,17.452,24.167,34.857,36.788,51.733,12.6,16.845,25.777,33.616,39.172,49.847,13.379,16.211,27.332,32.319,41.473,47.878s28.832,30.967,43.691,45.826,30.277,29.559,45.826,43.691,31.667,28.095,47.878,41.473c16.231,13.4,33,26.574,49.847,39.172,16.876,12.621,34.282,25,51.733,36.788,17.494,11.819,35.506,23.366,53.536,34.321,18.085,10.988,36.676,21.678,55.257,31.772,18.648,10.13,37.789,19.934,56.894,29.139,19.183,9.244,38.848,18.134,58.448,26.424,19.691,8.329,39.851,16.278,59.92,23.626,20.172,7.386,40.8,14.365,61.308,20.744,20.625,6.415,41.692,12.4,62.614,17.781,21.051,5.416,42.529,10.373,63.838,14.734,21.448,4.389,43.31,8.293,64.978,11.6,21.819,3.333,44.036,6.157,66.036,8.391,22.161,2.251,44.707,3.965,67.011,5.1,22.476,1.139,45.322,1.717,67.9,1.717s45.428-.578,67.9-1.717c22.3-1.131,44.85-2.845,67.011-5.1,22-2.234,44.217-5.057,66.036-8.391,21.668-3.311,43.529-7.215,64.978-11.6,21.309-4.36,42.787-9.317,63.837-14.734,20.923-5.383,41.989-11.365,62.614-17.781,20.509-6.379,41.136-13.358,61.308-20.744,20.068-7.348,40.228-15.3,59.92-23.626,19.6-8.29,39.265-17.18,58.448-26.424,19.1-9.205,38.246-19.009,56.894-29.139,18.581-10.094,37.172-20.784,55.256-31.772,18.03-10.955,36.042-22.5,53.536-34.321,17.452-11.791,34.857-24.168,51.733-36.788,16.845-12.6,33.616-25.777,49.847-39.172,16.211-13.378,32.319-27.332,47.878-41.473s30.967-28.832,45.826-43.691,29.559-30.277,43.691-45.826,28.095-31.667,41.473-47.878c13.4-16.231,26.574-33,39.172-49.847,12.621-16.876,25-34.282,36.788-51.733,11.819-17.494,23.366-35.506,34.321-53.536,10.988-18.084,21.678-36.675,31.772-55.256,10.13-18.648,19.934-37.79,29.139-56.894,9.244-19.183,18.134-38.848,26.424-58.448,8.329-19.692,16.278-39.851,23.626-59.92,7.386-20.172,14.365-40.8,20.744-61.308,6.415-20.625,12.4-41.692,17.781-62.614,5.416-21.051,10.373-42.529,14.734-63.837,4.389-21.448,8.293-43.31,11.6-64.978,3.333-21.819,6.157-44.036,8.391-66.036,2.251-22.161,3.965-44.707,5.1-67.011,1.139-22.476,1.717-45.322,1.717-67.9s-.578-45.428-1.717-67.9c-1.131-22.3-2.845-44.85-5.1-67.011-2.234-22-5.057-44.217-8.391-66.036-3.311-21.668-7.215-43.529-11.6-64.978-4.36-21.309-9.317-42.787-14.734-63.838-5.383-20.922-11.365-41.989-17.781-62.614-6.379-20.509-13.358-41.136-20.744-61.308-7.348-20.068-15.3-40.228-23.626-59.92-8.29-19.6-17.18-39.265-26.424-58.448-9.205-19.1-19.009-38.246-29.139-56.894-10.094-18.581-20.784-37.172-31.772-55.257-10.955-18.03-22.5-36.042-34.321-53.536-11.791-17.452-24.168-34.857-36.788-51.733-12.6-16.845-25.777-33.616-39.172-49.847-13.378-16.211-27.332-32.32-41.473-47.878s-28.832-30.967-43.691-45.826-30.277-29.559-45.826-43.691-31.667-28.095-47.878-41.473c-16.231-13.395-33-26.574-49.847-39.172-16.876-12.621-34.282-25-51.733-36.788-17.494-11.819-35.506-23.366-53.536-34.321-18.084-10.989-36.675-21.678-55.256-31.772-18.648-10.13-37.79-19.934-56.894-29.139-19.183-9.243-38.848-18.134-58.448-26.424-19.692-8.329-39.851-16.278-59.92-23.626-20.172-7.386-40.8-14.365-61.308-20.744-20.625-6.415-41.692-12.4-62.614-17.781-21.051-5.416-42.529-10.373-63.837-14.734-21.448-4.389-43.31-8.293-64.978-11.6-21.819-3.333-44.036-6.157-66.036-8.391-22.161-2.251-44.707-3.965-67.011-5.1C1367.928,3.578,1345.082,3,1322.5,3m0-3C2052.9,0,2645,592.1,2645,1322.5S2052.9,2645,1322.5,2645,0,2052.9,0,1322.5,592.1,0,1322.5,0Z" transform="translate(-15 -746)" fill="#d6d6d6" opacity="0.2"/></g></g></svg>