<?xml version="1.0" encoding="utf-8"?>
<!-- Generator: Adobe Illustrator 23.0.1, SVG Export Plug-In . SVG Version: 6.00 Build 0)  -->
<svg version="1.1" id="Layer_1" xmlns="http://www.w3.org/2000/svg" xmlns:xlink="http://www.w3.org/1999/xlink" x="0px" y="0px"
	 viewBox="0 0 280 280" style="enable-background:new 0 0 280 280;" xml:space="preserve">
<style type="text/css">
	.st0{clip-path:url(#SVGID_2_);}
	.st1{fill:#DA9C9C;}
</style>
<g>
	<defs>
		<rect id="SVGID_1_" width="280" height="280"/>
	</defs>
	<clipPath id="SVGID_2_">
		<use xlink:href="#SVGID_1_"  style="overflow:visible;"/>
	</clipPath>
	<g id="telegram_icon" class="st0">
		<path id="Subtraction_1" class="st1" d="M194.6,217.3c-2.4-0.1-4.7-0.9-6.7-2.1l-41.4-31.5l-20,19.8l-0.3,0.3
			c-2.2,2.2-4,4.1-8,4.1c-1.9,0-3.1-0.3-3.8-0.9l6.6-42.6c0.7-0.6,70.3-63.7,73.6-67.3c1.5-1.6,2.2-3.3,1.8-4.3
			c-0.2-0.5-0.8-0.8-1.3-0.7c-1.1,0.1-2.2,0.5-3.1,1.1c-4.6,2.8-90.8,57.2-94.5,59.5l0,0l0,0.1l-41-13c-4-1.3-6.3-3.3-6.4-5.6
			c-0.1-2.8,2.8-5.6,8.3-8l160.1-63.3c1.3-0.6,2.8-0.9,4.2-0.9c2.3,0,4.5,1,6,2.8c2.1,2.6,2.6,6.8,1.5,11.7l-27.3,131.4
			C201.7,214.1,198.8,217.3,194.6,217.3z"/>
	</g>
</g>
</svg>
