<svg id="Layer_1" data-name="Layer 1" xmlns="http://www.w3.org/2000/svg" xmlns:xlink="http://www.w3.org/1999/xlink" viewBox="0 0 166.17 132.4"><defs><style>.cls-1{fill:none;}.cls-2{clip-path:url(#clip-path);}.cls-3{fill:#da9c9c;}</style><clipPath id="clip-path" transform="translate(-56.91 -73.8)"><rect class="cls-1" width="280" height="280"/></clipPath></defs><title>twitter_icon</title><g class="cls-2"><g id="twitter_icon" data-name="twitter icon"><path id="twitter" class="cls-3" d="M222.64,89.65a69.2,69.2,0,0,1-19.5,5.29,33.5,33.5,0,0,0,15-18.57,74.59,74.59,0,0,1-21.6,8,34.23,34.23,0,0,0-24.9-10.57c-18.74,0-34,15-34,33.36a33.76,33.76,0,0,0,.9,7.7A97,97,0,0,1,68.31,80a33.25,33.25,0,0,0-4.65,16.76,32.85,32.85,0,0,0,15.15,27.77,34.89,34.89,0,0,1-15.45-4.22v.45a33.43,33.43,0,0,0,27.3,32.75,34.83,34.83,0,0,1-15.3.61,34.11,34.11,0,0,0,32,23.26A69.23,69.23,0,0,1,65,191.71a73,73,0,0,1-8.1-.46,97.7,97.7,0,0,0,52.35,14.95c62.68,0,96.88-50.88,96.88-95.11q0-2.11-.15-4.23a69.32,69.32,0,0,0,17.1-17.36Z" transform="translate(-56.91 -73.8)"/></g></g></svg>